<svg width="1440" height="742" viewBox="0 0 1440 742" fill="none" xmlns="http://www.w3.org/2000/svg">
<path d="M640.333 641.949C820.896 641.949 912.816 742 1103.38 742C1302.53 742 1442 602 1442 602H0C0 602 47.5681 704.172 228.978 704.172C482.066 704.172 436.498 641.949 640.333 641.949Z" fill="#EFBB29"/>
<path d="M730.5 10.9321C549.937 10.9321 495.117 78.144 322 78.144C148.883 78.144 0 3.23912 0 3.23912L0 149L1442 149V0C1442 0 1292.84 64.7826 1205 64.7826C951.912 64.7826 934.335 10.9321 730.5 10.9321Z" fill="#EFBB29"/>
<rect y="148" width="1440" height="455" fill="#EFBB29"/>
</svg>
