<svg width="548" height="459" viewBox="0 0 548 459" fill="none" xmlns="http://www.w3.org/2000/svg">
<path d="M547.665 395.714C547.665 418.199 431.782 458.041 288.833 458.041C145.883 458.041 30 418.199 30 395.714C30 373.228 145.883 376.613 288.833 376.613C431.782 376.613 547.665 373.228 547.665 395.714Z" fill="#39374D"/>
<path d="M288.833 436.427C431.782 436.427 547.665 418.199 547.665 395.714C547.665 373.228 431.782 355 288.833 355C145.883 355 30 373.228 30 395.714C30 418.199 145.883 436.427 288.833 436.427Z" fill="#3F3D56"/>
<path d="M79.4323 0L46.3572 64.5772H53.034V117.237H19.3852L0 155.085L240.197 278.358L319.63 123.273L79.4323 0Z" fill="#EDEDED"/>
<g filter="url(#filter0_d)">
<path d="M432.701 42.0081H80.4487C76.0305 42.0081 72.4487 45.5898 72.4487 50.0081V218.946C72.4487 223.364 76.0305 226.946 80.4487 226.946H432.701C437.119 226.946 440.701 223.364 440.701 218.946V50.0081C440.701 45.5898 437.119 42.0081 432.701 42.0081Z" fill="#F3F3F3"/>
</g>
<path opacity="0.3" d="M395.922 108.461H124.117V109.087H395.922V108.461Z" fill="#6C63FF"/>
<path opacity="0.3" d="M396.235 124.133H124.43V124.76H396.235V124.133Z" fill="#6C63FF"/>
<path opacity="0.3" d="M396.235 155.478H124.43V156.105H396.235V155.478Z" fill="#6C63FF"/>
<path opacity="0.3" d="M396.235 169.27H124.43V169.897H396.235V169.27Z" fill="#6C63FF"/>
<path opacity="0.3" d="M396.235 139.806H124.43V140.433H396.235V139.806Z" fill="#6C63FF"/>
<path d="M131.971 169.725L131.106 168.817L171.565 130.216L207.229 155.896L236.07 123.888L248.716 134.648L283.117 113.987L321.329 139.696L381.302 105.549L381.921 106.638L321.274 141.17L283.079 115.472L248.59 136.186L236.185 125.632L207.408 157.569L171.676 131.842L131.971 169.725Z" fill="#EFBB29"/>
<path d="M126.139 370.089C129.911 383.62 142.829 392 142.829 392C142.829 392 149.633 378.442 145.861 364.911C142.089 351.38 129.171 343 129.171 343C129.171 343 122.367 356.558 126.139 370.089Z" fill="#2F569B"/>
<path d="M144.516 363.722C137.564 375.971 140.692 390.991 140.692 390.991C140.692 390.991 155.09 386.149 162.042 373.9C168.993 361.65 165.866 346.631 165.866 346.631C165.866 346.631 151.467 351.472 144.516 363.722Z" fill="#2F569B"/>
<path d="M132.535 367.478C142.752 377.143 144 392 144 392C144 392 128.683 391.187 118.465 381.522C108.248 371.857 107 357 107 357C107 357 122.318 357.813 132.535 367.478Z" fill="#EFBB29"/>
<path d="M471.158 62.0068C482.745 62.0068 492.138 52.6041 492.138 41.0053C492.138 29.4066 482.745 20.0039 471.158 20.0039C459.571 20.0039 450.178 29.4066 450.178 41.0053C450.178 52.6041 459.571 62.0068 471.158 62.0068Z" fill="#EFBB29"/>
<path d="M444.888 92.2167C453.016 92.2167 459.605 85.6208 459.605 77.4843C459.605 69.3479 453.016 62.752 444.888 62.752C436.759 62.752 430.17 69.3479 430.17 77.4843C430.17 85.6208 436.759 92.2167 444.888 92.2167Z" fill="#2F569B"/>
<path d="M422.226 321.609C426.55 321.609 430.055 318.101 430.055 313.773C430.055 309.445 426.55 305.936 422.226 305.936C417.903 305.936 414.398 309.445 414.398 313.773C414.398 318.101 417.903 321.609 422.226 321.609Z" fill="#EFBB29"/>
<path d="M293.093 372.185C295.353 372.185 297.185 370.353 297.185 368.092C297.185 365.832 295.353 364 293.093 364C290.832 364 289 365.832 289 368.092C289 370.353 290.832 372.185 293.093 372.185Z" fill="#EFBB29"/>
<path d="M187.093 29.1851C189.353 29.1851 191.185 27.3528 191.185 25.0926C191.185 22.8323 189.353 21.0001 187.093 21.0001C184.832 21.0001 183 22.8323 183 25.0926C183 27.3528 184.832 29.1851 187.093 29.1851Z" fill="#EFBB29"/>
<path d="M277.5 319C281.09 319 284 316.09 284 312.5C284 308.91 281.09 306 277.5 306C273.91 306 271 308.91 271 312.5C271 316.09 273.91 319 277.5 319Z" fill="#2F569B"/>
<path d="M468.092 132.185C470.353 132.185 472.185 130.353 472.185 128.093C472.185 125.832 470.353 124 468.092 124C465.832 124 464 125.832 464 128.093C464 130.353 465.832 132.185 468.092 132.185Z" fill="#2F569B"/>
<path d="M71 196C76.5228 196 81 191.523 81 186C81 180.477 76.5228 176 71 176C65.4772 176 61 180.477 61 186C61 191.523 65.4772 196 71 196Z" fill="#2F569B"/>
<path d="M214.5 303C221.404 303 227 297.404 227 290.5C227 283.597 221.404 278 214.5 278C207.596 278 202 283.597 202 290.5C202 297.404 207.596 303 214.5 303Z" fill="#EFBB29"/>
<path d="M86 244C97.5979 244 107 234.598 107 223C107 211.402 97.5979 202 86 202C74.402 202 65 211.402 65 223C65 234.598 74.402 244 86 244Z" fill="#EFBB29"/>
<path d="M380.891 116.924C385.388 116.924 389.033 113.275 389.033 108.774C389.033 104.273 385.388 100.624 380.891 100.624C376.395 100.624 372.75 104.273 372.75 108.774C372.75 113.275 376.395 116.924 380.891 116.924Z" fill="#EFBB29"/>
<path d="M327.991 256.389L321.089 257.157C321.089 257.157 318.022 270.975 321.089 289.398C324.157 307.822 327.991 326.245 327.991 326.245C327.991 326.245 331.059 386.122 332.592 386.89C334.126 387.657 347.93 392.263 348.697 387.657C349.464 383.051 349.464 277.883 349.464 277.883L360.2 328.548C360.2 328.548 361.734 392.263 364.801 392.263C367.869 392.263 377.838 391.495 377.838 386.122C377.838 380.748 380.139 310.125 380.139 310.125C380.139 310.125 379.372 257.924 376.305 256.389C373.237 254.854 327.991 256.389 327.991 256.389Z" fill="#2F2E41"/>
<path d="M334.126 384.587C334.126 384.587 327.224 383.819 325.69 384.587C324.157 385.354 321.856 390.728 325.69 393.798C329.525 396.869 339.494 401.475 342.562 401.475C344.689 401.381 346.776 400.858 348.697 399.94L347.163 386.89L334.126 384.587Z" fill="#2F2E41"/>
<path d="M364.801 388.425L365.568 399.172C365.568 399.172 375.538 400.707 376.305 399.172C377.071 397.637 384.74 393.798 385.507 393.031C386.274 392.263 387.041 383.819 382.44 383.052C377.838 382.284 376.305 384.587 376.305 384.587L364.801 388.425Z" fill="#2F2E41"/>
<path d="M300.383 191.907C300.383 191.907 281.978 209.563 284.279 218.774C286.579 227.986 304.985 254.854 304.985 254.854C304.985 254.854 322.623 264.066 324.923 254.854C327.224 245.642 312.653 247.945 312.653 247.945L301.15 220.31L314.187 201.886L300.383 191.907Z" fill="#FFB8B8"/>
<path d="M382.623 165.045C382.623 165.045 399.389 154.253 399.001 146.838C398.613 139.423 388.505 116.045 388.505 116.045C388.505 116.045 380.598 99.5887 377.455 106.314C374.312 113.039 381.586 120.198 381.586 120.198L386.282 143.131L373.521 155.318L382.623 165.045Z" fill="#FFB8B8"/>
<path d="M341.028 149.686C348.652 149.686 354.832 143.5 354.832 135.868C354.832 128.237 348.652 122.051 341.028 122.051C333.405 122.051 327.224 128.237 327.224 135.868C327.224 143.5 333.405 149.686 341.028 149.686Z" fill="#FFB8B8"/>
<path d="M334.126 144.313L336.427 158.898L353.298 155.827C353.298 155.827 352.531 141.242 352.531 139.707C352.531 138.171 334.126 144.313 334.126 144.313Z" fill="#FFB8B8"/>
<path d="M333.359 158.898C333.359 158.898 352.531 154.292 354.832 155.827C357.133 157.363 368.636 158.898 368.636 158.898L381.673 178.857L377.838 204.189C377.838 204.189 377.072 244.875 378.605 251.783C380.139 258.692 388.575 259.46 370.937 260.995C353.298 262.53 350.231 260.228 337.961 263.298C325.691 266.369 315.721 261.763 318.789 258.692C321.856 255.622 327.224 206.492 321.089 201.886C314.954 197.28 312.654 173.483 312.654 173.483C312.654 173.483 333.359 162.736 333.359 158.898Z" fill="#E7E7E7"/>
<path d="M366.335 161.201L368.636 158.898L373.237 154.292C373.237 154.292 388.191 160.817 387.424 163.12C386.657 165.423 381.673 178.857 381.673 178.857L374.771 181.16L366.335 161.201Z" fill="#E7E7E7"/>
<path d="M321.856 175.018L312.654 173.483C312.654 173.483 305.752 181.16 303.451 184.23C301.15 187.301 296.549 194.977 296.549 194.977L312.654 206.492L324.924 193.442L321.856 175.018Z" fill="#E7E7E7"/>
<path d="M345.845 119.128L345.704 118.021C344.766 118.016 343.833 118.162 342.941 118.456C342.85 117.788 342.908 117.109 343.112 116.467C342.206 116.7 341.343 117.075 340.555 117.579L339.997 115.559L332.331 119.341C329.579 120.699 326.678 122.191 325.104 124.827C323.351 127.767 323.656 131.544 324.855 134.751C326.054 137.958 328.046 140.795 329.643 143.823C330.249 145.125 330.978 146.366 331.819 147.53C334.712 151.141 340.345 151.871 344.425 149.691C345.978 148.942 347.215 147.668 347.918 146.093C348.216 145.116 348.449 144.12 348.616 143.113C349.121 141.049 349.707 136.79 351.381 135.484C352.118 134.91 353.579 136.814 354.189 136.107C355.758 134.289 355.429 131.486 354.454 129.29C353.519 127.085 352.426 124.951 351.183 122.903C350.657 122.08 345.829 118.995 345.845 119.128Z" fill="#474747"/>
<defs>
<filter id="filter0_d" x="56.4487" y="36.0081" width="400.252" height="216.938" filterUnits="userSpaceOnUse" color-interpolation-filters="sRGB">
<feFlood flood-opacity="0" result="BackgroundImageFix"/>
<feColorMatrix in="SourceAlpha" type="matrix" values="0 0 0 0 0 0 0 0 0 0 0 0 0 0 0 0 0 0 127 0"/>
<feOffset dy="10"/>
<feGaussianBlur stdDeviation="8"/>
<feColorMatrix type="matrix" values="0 0 0 0 0 0 0 0 0 0 0 0 0 0 0 0 0 0 0.08 0"/>
<feBlend mode="normal" in2="BackgroundImageFix" result="effect1_dropShadow"/>
<feBlend mode="normal" in="SourceGraphic" in2="effect1_dropShadow" result="shape"/>
</filter>
</defs>
</svg>
