<svg width="1440" height="638" viewBox="0 0 1440 638" fill="none" xmlns="http://www.w3.org/2000/svg">
<path d="M640.333 537.949C820.896 537.949 912.816 638 1103.38 638C1302.53 638 1442 498 1442 498H0C0 498 47.5681 600.172 228.978 600.172C482.066 600.172 436.498 537.949 640.333 537.949Z" fill="#2F569B"/>
<path d="M768.533 12C588.22 11.9999 568.602 77.2714 296 77.2714C203.99 77.2714 2.74508e-05 0.5 2.74508e-05 0.5L0 121L1440 121L1440 12C1440 12 1347.43 77.2714 1211.84 77.2714C959.103 77.2714 972.085 12 768.533 12Z" fill="#2F569B"/>
<rect y="121" width="1440" height="377" fill="#2F569B"/>
</svg>
